<?xml version="1.0" encoding="UTF-8" standalone="no"?>
<svg
   width="800"
   height="800"
   viewBox="0 0 800 800"
   version="1.1"
   xml:space="preserve"
   id="SVGRoot"
   xmlns="http://www.w3.org/2000/svg"
   xmlns:svg="http://www.w3.org/2000/svg"><defs
   id="defs2" />

<style
   type="text/css"
   id="style1">
g.prefab path {
  vector-effect:non-scaling-stroke;
  -inkscape-stroke:hairline;
  fill: none;
  fill-opacity: 1;
  stroke-opacity: 1;
  stroke: #00349c;
}
</style>
<g
   style="fill:#ffffff;stroke:#000000;stroke-width:2"
   class="prefab"
   id="g2"
   transform="translate(-49.707105,-50)">
  <path
   d="M 849.53146,50.000002 H 49.707105 L 849.53146,850.00003 Z M 451.68747,50 H 850 V 850 H 451.68747 Z M 50.175632,450 H 849.99997 V 850 H 50.175632 Z m -10e-7,-399.999998 H 849.99998 L 50.175631,850.00003 Z"
   id="path1"
   style="stroke:#000000;stroke-width:1;stroke-dasharray:none;stroke-opacity:1" />
  <path
   d="M 450,50 A 400,400 0 0 0 50,450 400,400 0 0 0 450,850 400,400 0 0 0 850,450 400,400 0 0 0 450,50 Z m 0,100 A 300,300 0 0 1 750,450 300,300 0 0 1 450,750 300,300 0 0 1 150,450 300,300 0 0 1 450,150 Z m 0,100 A 200,200 0 0 0 250,450 200,200 0 0 0 450,650 200,200 0 0 0 650,450 200,200 0 0 0 450,250 Z m 0,100 A 100,100 0 0 1 550,450 100,100 0 0 1 450,550 100,100 0 0 1 350,450 100,100 0 0 1 450,350 Z"
   id="path2"
   style="stroke:#000000;stroke-width:1;stroke-dasharray:none;stroke-opacity:1" />
</g>
</svg>
